<?xml version="1.0" encoding="UTF-8" standalone="no"?>
<!-- Created with Inkscape (http://www.inkscape.org/) -->

<svg
   version="1.1"
   id="svg1"
   width="1713"
   height="700"
   viewBox="0 0 1713 700"
   xmlns="http://www.w3.org/2000/svg"
   xmlns:svg="http://www.w3.org/2000/svg">
  <defs
     id="defs1">
    <rect
       x="-10.633605"
       y="574.21466"
       width="1710.2382"
       height="258.75107"
       id="rect2" />
  </defs>
  <g
     id="g1"
     transform="translate(0,-0.00667864)">
    <g
       id="group-R5">
      <path
         id="path2"
         d="m 8840.16,596.391 c -88.08,-89.629 -210.39,-137.082 -353.72,-137.25 -1.16,0 -2.33,0.058 -3.49,0.07 -1.16,-0.012 -2.32,-0.07 -3.48,-0.07 -143.34,0.168 -265.64,47.621 -353.73,137.25 -88.95,90.589 -137.13,221.558 -136.57,369.98 -0.56,148.379 47.62,279.469 136.62,370.059 88.04,89.64 210.34,137.13 353.72,137.26 h 0.82 c 0.88,0 1.74,-0.05 2.62,-0.05 0.88,0 1.74,0.05 2.62,0.05 h 0.82 c 143.38,-0.13 265.69,-47.62 353.73,-137.26 88.99,-90.59 137.17,-221.68 136.61,-370.059 0.56,-148.422 -47.62,-279.391 -136.57,-369.98 z M 9477.2,966.5 c -1.25,374.58 -155.66,653.97 -460.17,830.66 -162.96,94.54 -347.8,136.46 -534.08,135.18 -186.28,1.28 -371.11,-40.64 -534.07,-135.18 -304.51,-176.69 -458.92,-456.08 -460.17,-830.66 h -0.05 C 7489.87,591.832 7644.32,312.398 7948.84,135.66 8106.97,43.9297 8286.55,0.96875 8468.65,0 c 4.73,0 9.54,0.148438 14.3,0.199219 C 8487.71,0.148438 8492.53,0 8497.25,0 c 182.11,0.96875 361.69,43.9297 519.82,135.66 304.51,176.738 458.97,456.172 460.17,830.84 h -0.04"
         style="fill:#ffffff;fill-opacity:1;fill-rule:nonzero;stroke:none"
         transform="matrix(0.13333333,0,0,-0.13333333,0,345.70667)" />
      <path
         id="path3"
         d="m 2480.2,1911.67 v -459.44 h 699.22 V 16.8086 h 511.8 V 1452.23 h 711.94 v 459.44 H 2480.2"
         style="fill:#ffffff;fill-opacity:1;fill-rule:nonzero;stroke:none"
         transform="matrix(0.13333333,0,0,-0.13333333,0,345.70667)" />
      <path
         id="path4"
         d="m 1798.46,16.8086 h 516.5 V 1915.55 h -516.5 V 16.8086"
         style="fill:#ffffff;fill-opacity:1;fill-rule:nonzero;stroke:none"
         transform="matrix(0.13333333,0,0,-0.13333333,0,345.70667)" />
      <path
         id="path5"
         d="M 0,16.8086 H 516.453 V 1915.55 H 0 V 16.8086"
         style="fill:#ffffff;fill-opacity:1;fill-rule:nonzero;stroke:none"
         transform="matrix(0.13333333,0,0,-0.13333333,0,345.70667)" />
      <path
         id="path6"
         d="M 1295.31,1915.55 516.492,16.8086 H 1048.94 L 1797.98,1915.55 h -502.67"
         style="fill:#ffffff;fill-opacity:1;fill-rule:nonzero;stroke:none"
         transform="matrix(0.13333333,0,0,-0.13333333,0,345.70667)" />
      <path
         id="path7"
         d="M 6476.07,1915.55 5963.49,665.91 5450.87,1915.55 H 4568.41 V 16.8086 h 516.46 V 1569.1 L 5697.25,16.8086 h 532.44 L 6842.08,1569.15 V 16.8086 h 516.54 V 1915.55 h -882.55"
         style="fill:#ffffff;fill-opacity:1;fill-rule:nonzero;stroke:none"
         transform="matrix(0.13333333,0,0,-0.13333333,0,345.70667)" />
      <path
         id="path8"
         d="m 2056.47,2592.75 c -142.78,0 -258.49,-113.25 -258.49,-252.88 0,-139.67 115.71,-252.89 258.49,-252.89 142.77,0 258.49,113.22 258.49,252.89 0,139.63 -115.72,252.88 -258.49,252.88"
         style="fill:#ffffff;fill-opacity:1;fill-rule:nonzero;stroke:none"
         transform="matrix(0.13333333,0,0,-0.13333333,0,345.70667)" />
    </g>
  </g>
  <text
     xml:space="preserve"
     id="text2"
     style="font-size:192px;white-space:pre;shape-inside:url(#rect2);fill:#ffffff;stroke-width:1.5874"
     transform="matrix(1.2372281,0,0,1.2372281,-4.0113255,-323.74253)"><tspan
       x="-10.632812"
       y="751.93881"
       id="tspan3"><tspan
         style="font-family:Inter;-inkscape-font-specification:'Inter, Normal'"
         id="tspan1">Веб-технологии</tspan></tspan></text>
</svg>
